HIERARCHY
ROOT hip
{
	OFFSET 0.000000 0.000000 0.000000 
	CHANNELS 6 Xposition Yposition Zposition Xrotation Zrotation Yrotation
	JOINT abdomen
	{
		OFFSET 0.000000 3.402643 0.000000 
		CHANNELS 3 Xrotation Zrotation Yrotation
		JOINT chest
		{
			OFFSET 0.000000 8.438565 -0.680529 
			CHANNELS 3 Xrotation Zrotation Yrotation
			JOINT neck
			{
				OFFSET 0.000000 10.207942 -0.272212 
				CHANNELS 3 Xrotation Zrotation Yrotation
				JOINT head
				{
					OFFSET 0.000000 3.130431 0.000000 
					CHANNELS 3 Xrotation Zrotation Yrotation
					End Site
					{
						OFFSET 0.000000 3.130435 0.000000 
					}
				}
			}
			JOINT lCollar
			{
				OFFSET 3.470700 6.669187 -0.816635 
				CHANNELS 3 Yrotation Zrotation Xrotation
				JOINT lShldr
				{
					OFFSET 3.198488 0.000000 0.000000 
					CHANNELS 3 Zrotation Yrotation Xrotation
					JOINT lForeArm
					{
						OFFSET 10.139888 0.000000 0.000000 
						CHANNELS 3 Yrotation Zrotation Xrotation
						JOINT lHand
						{
							OFFSET 8.370511 0.000000 0.000000 
							CHANNELS 3 Zrotation Yrotation Xrotation
							End Site
							{
								OFFSET 4.083176 0.000000 0.000000 
							}
						}
					}
				}
			}
			JOINT rCollar
			{
				OFFSET -3.470700 6.669187 -0.816635 
				CHANNELS 3 Yrotation Zrotation Xrotation
				JOINT rShldr
				{
					OFFSET -3.198488 0.000000 0.000000 
					CHANNELS 3 Zrotation Yrotation Xrotation
					JOINT rForeArm
					{
						OFFSET -10.139888 0.000000 0.000000 
						CHANNELS 3 Yrotation Zrotation Xrotation
						JOINT rHand
						{
							OFFSET -8.370511 0.000000 0.000000 
							CHANNELS 3 Zrotation Yrotation Xrotation
							End Site
							{
								OFFSET -4.083176 0.000000 0.000000 
							}
						}
					}
				}
			}
		}
	}
	JOINT lThigh
	{
		OFFSET 5.308129 -1.633274 1.361059 
		CHANNELS 3 Xrotation Zrotation Yrotation
		JOINT lShin
		{
			OFFSET -2.041588 -20.007561 0.000000 
			CHANNELS 3 Xrotation Zrotation Yrotation
			JOINT lFoot
			{
				OFFSET 0.000000 -19.190928 -1.224953 
				CHANNELS 3 Xrotation Yrotation Zrotation
				End Site
				{
					OFFSET 0.000000 -2.449906 4.627600 
				}
			}
		}
	}
	JOINT rThigh
	{
		OFFSET -5.308129 -1.633274 1.361059 
		CHANNELS 3 Xrotation Zrotation Yrotation
		JOINT rShin
		{
			OFFSET 2.041588 -20.007561 0.000000 
			CHANNELS 3 Xrotation Zrotation Yrotation
			JOINT rFoot
			{
				OFFSET 0.000000 -19.190928 -1.224953 
				CHANNELS 3 Xrotation Yrotation Zrotation
				End Site
				{
					OFFSET 0.000000 -2.449906 4.627600 
				}
			}
		}
	}
}
MOTION
Frames: 16
Frame Time: 0.016667
-0.578459 52.620316 -0.884368 -16.623333 -5.947182 0.304141 29.778053 7.664429 4.411873 -0.844792 3.173645 0.860594 -10.029066 -9.630870 1.369373 7.583768 -10.007363 61.216118 -11.569211 -14.911863 -0.794286 -75.461884 -11.004715 20.284576 -27.991583 -2.184542 1.058224 -26.373121 -11.411921 -26.886360 12.547078 9.031234 -0.478220 83.981293 15.013353 45.000000 15.829706 -5.000000 -38.829433 4.168452 -8.673068 -13.002408 25.920956 27.066999 18.705948 2.161478 -5.658145 -0.389433 -0.707307 5.762964 -15.030273 22.004133 -7.370612 -3.314525 5.485749 1.638272 0.111217 -5.929700 -9.828502 11.666623 
-0.580554 52.620312 -0.887733 -16.613672 -5.966714 0.304140 29.766340 7.662284 4.389939 -0.863995 3.154109 0.889874 -10.037199 -9.563298 1.359157 7.594146 -10.031503 61.171967 -11.607990 -14.892355 -0.793280 -75.466743 -10.989442 20.237425 -27.982140 -2.179788 1.049698 -26.419884 -11.560987 -26.837820 12.508181 9.050746 -0.479229 83.962662 14.992504 45.000000 15.917114 -5.000000 -38.644642 4.229999 -8.706062 -13.091607 25.919979 27.095781 18.705507 2.169949 -5.654996 -0.419554 -0.678664 5.750781 -15.035007 21.972399 -7.343961 -3.326785 5.526423 1.639566 0.103581 -5.748518 -9.766373 11.735414 
-0.580523 52.619251 -0.891300 -16.603037 -5.996015 0.294426 29.735723 7.679399 4.374080 -0.873223 3.154103 0.889859 -10.016971 -9.534340 1.354778 7.598520 -10.042108 61.153629 -11.614936 -14.874817 -0.783028 -75.465935 -10.975244 20.220856 -27.983448 -2.161459 1.015225 -26.455873 -11.666135 -26.809668 12.498416 9.050749 -0.479229 83.958748 14.968484 45.000000 15.970262 -5.000000 -38.521679 4.273033 -8.703118 -13.174908 25.888590 27.124615 18.674889 2.198106 -5.654597 -0.431876 -0.695449 5.788341 -15.020440 21.924406 -7.302417 -3.327143 5.554696 1.610262 0.123723 -5.645842 -9.771466 11.747949 
-0.579085 52.617477 -0.894991 -16.602108 -6.015551 0.284714 29.725092 7.670565 4.370476 -0.881800 3.163856 0.889830 -9.995588 -9.526165 1.343798 7.588753 -10.042108 61.153633 -11.634466 -14.874815 -0.783028 -75.476242 -10.962422 20.225006 -28.004602 -2.138862 0.971967 -26.484119 -11.743850 -26.807951 12.508016 9.031240 -0.478221 83.960732 14.946817 45.000000 15.998235 -5.000000 -38.414433 4.318891 -8.669335 -13.258528 25.894213 27.146639 18.695660 2.199106 -5.664799 -0.461133 -0.732215 5.810965 -15.023008 21.913719 -7.304855 -3.336810 5.565231 1.639550 0.164184 -5.624770 -9.733446 11.756211 
-0.577999 52.616417 -0.898654 -16.600142 -6.035092 0.264264 29.724470 7.671310 4.371150 -0.900678 3.173615 0.889816 -9.985594 -9.516513 1.342338 7.598520 -10.042108 61.153629 -11.646772 -14.872847 -0.792272 -75.477303 -10.941157 20.220160 -28.025419 -2.120823 0.937339 -26.521263 -11.825956 -26.802158 12.516102 9.013851 -0.467796 83.958229 14.934341 45.000000 16.020687 -5.000000 -38.336704 4.354361 -8.648675 -13.320309 25.890095 27.164158 18.702211 2.219818 -5.677747 -0.482347 -0.752202 5.815633 -15.009737 21.900520 -7.284754 -3.351963 5.568042 1.627743 0.183691 -5.591523 -9.758251 11.746354 
-0.578327 52.618191 -0.902184 -16.618683 -6.044862 0.254551 29.754889 7.644313 4.381908 -0.921292 3.173627 0.870315 -9.994672 -9.487553 1.337958 7.628322 -10.048580 61.166210 -11.656538 -14.872845 -0.792272 -75.465294 -10.937398 20.190010 -28.074572 -2.116984 0.928325 -26.535055 -11.912334 -26.825916 12.507934 9.021489 -0.477717 83.959320 14.935266 45.000000 16.014719 -5.000000 -38.329647 4.408957 -8.615430 -13.337940 25.920717 27.164267 18.717846 2.228416 -5.684736 -0.444213 -0.744285 5.795391 -15.017650 21.923588 -7.304901 -3.326766 5.573316 1.648840 0.145420 -5.570532 -9.689474 11.766439 
-0.578652 52.619965 -0.905715 -16.645954 -6.054637 0.235128 29.785223 7.616983 4.394719 -0.941907 3.173639 0.850813 -10.002371 -9.469726 1.325516 7.659773 -10.057999 61.169617 -11.663625 -14.865065 -0.782525 -75.462700 -10.918439 20.154581 -28.124046 -2.108526 0.910711 -26.559752 -11.999866 -26.862846 12.496735 9.033356 -0.468805 83.951874 14.952304 45.000000 16.000956 -5.000000 -38.322861 4.456203 -8.593912 -13.354468 25.944094 27.156565 18.738663 2.248930 -5.676557 -0.426394 -0.715641 5.773187 -15.036734 21.915943 -7.292461 -3.294476 5.581398 1.627776 0.086685 -5.554984 -9.657717 11.760160 
-0.577699 52.620316 -0.910789 -16.655720 -6.054637 0.235128 29.792309 7.606020 4.367593 -0.960896 3.173633 0.850798 -9.972395 -9.440764 1.321134 7.642467 -10.059193 61.149578 -11.663487 -14.855311 -0.782022 -75.457016 -10.919500 20.183321 -28.145470 -2.081181 0.858563 -26.566658 -12.122283 -26.891367 12.516346 9.043110 -0.469310 83.940079 14.947576 45.000000 16.006435 -5.000000 -38.293354 4.461255 -8.572671 -13.353648 25.932747 27.166300 18.750408 2.277394 -5.665128 -0.419192 -0.707488 5.744479 -15.047835 21.900465 -7.303993 -3.267210 5.612106 1.629274 0.068777 -5.525345 -9.685856 11.781367 
-0.576422 52.620316 -0.916250 -16.655720 -6.054637 0.235128 29.801165 7.599915 4.354209 -0.988682 3.163850 0.850753 -9.931280 -9.422936 1.307091 7.623508 -10.057430 61.138702 -11.663348 -14.845561 -0.781519 -75.454094 -10.915888 20.235062 -28.167179 -2.049189 0.798189 -26.572489 -12.268704 -26.918816 12.535959 9.052861 -0.469814 83.928291 14.942850 45.000000 16.002283 -5.000000 -38.277065 4.444158 -8.557452 -13.332120 25.926037 27.157707 18.765314 2.305787 -5.653594 -0.421737 -0.716199 5.763766 -15.040382 21.890175 -7.303842 -3.267297 5.619034 1.638228 0.089019 -5.534537 -9.689855 11.779156 
-0.575856 52.620316 -0.921646 -16.654644 -6.044875 0.225417 29.799797 7.594271 4.341677 -1.007789 3.154078 0.860503 -9.901760 -9.413283 1.305631 7.614370 -10.047405 61.104389 -11.685136 -14.824079 -0.789756 -75.447517 -10.914586 20.254370 -28.188240 -2.026380 0.755041 -26.574072 -12.379050 -26.953888 12.537642 9.070245 -0.480236 83.909050 14.955160 45.000000 16.005926 -5.000000 -38.256779 4.418928 -8.543719 -13.317321 25.918192 27.163546 18.809193 2.305806 -5.653665 -0.450994 -0.709241 5.721992 -15.046062 21.880096 -7.333229 -3.265156 5.632401 1.658839 0.119537 -5.544179 -9.668288 11.809299 
-0.576349 52.620316 -0.926939 -16.651510 -6.035121 0.196283 29.788012 7.567867 4.329391 -1.017670 3.144314 0.889800 -9.890393 -9.414760 1.296108 7.637200 -10.010786 61.070744 -11.714292 -14.814323 -0.789252 -75.437370 -10.903757 20.235960 -28.237078 -2.026981 0.754718 -26.567526 -12.460941 -26.991962 12.537893 9.099502 -0.481748 83.887230 14.967917 45.000000 16.005926 -5.000000 -38.256779 4.394351 -8.518985 -13.321396 25.925438 27.127714 18.846601 2.297519 -5.657079 -0.459885 -0.758156 5.738517 -15.029252 21.872679 -7.353016 -3.250170 5.640779 1.668216 0.091030 -5.588064 -9.691275 11.796463 
-0.576843 52.620316 -0.932237 -16.649384 -6.015596 0.175837 29.795116 7.532038 4.314141 -1.018320 3.134555 0.899580 -9.878806 -9.406584 1.285125 7.652950 -9.981746 61.031345 -11.750550 -14.796803 -0.779001 -75.418785 -10.898683 20.225134 -28.276453 -2.022836 0.745864 -26.567831 -12.551629 -27.036427 12.536530 9.121127 -0.473345 83.865440 14.980700 45.000000 16.004105 -5.000000 -38.267849 4.359522 -8.507484 -13.306633 25.918985 27.105099 18.870708 2.297820 -5.667567 -0.479407 -0.756991 5.730640 -15.053125 21.838202 -7.390595 -3.230925 5.663020 1.698373 0.073546 -5.592876 -9.649334 11.794026 
-0.580865 52.620316 -0.937201 -16.656086 -6.025371 0.146700 29.786650 7.550882 4.320081 -1.047844 3.115025 0.899579 -9.848348 -9.427367 1.278521 7.709363 -9.972287 61.027966 -11.772467 -14.785058 -0.787742 -75.408798 -10.864180 20.192492 -28.326496 -2.004895 0.711179 -26.575876 -12.625983 -27.066414 12.575839 9.150384 -0.474858 83.838211 14.957788 45.000000 16.037636 -5.000000 -38.286625 4.322840 -8.558141 -13.254261 25.965107 27.089188 18.942631 2.247854 -5.634963 -0.445847 -0.698242 5.701838 -15.074603 21.838625 -7.390697 -3.240880 5.659458 1.707065 0.103016 -5.609725 -9.610835 11.798730 
-0.584889 52.620312 -0.942168 -16.654047 -6.035142 0.127276 29.776852 7.551807 4.318399 -1.067602 3.095495 0.909344 -9.817883 -9.448151 1.271919 7.766321 -9.961005 61.013710 -11.801625 -14.775304 -0.787238 -75.390442 -10.823588 20.160334 -28.376526 -1.986894 0.676524 -26.590782 -12.709164 -27.104866 12.624914 9.179640 -0.476370 83.818733 14.928457 45.000000 16.069302 -5.000000 -38.316444 4.290483 -8.598472 -13.183653 25.998638 27.086178 18.980659 2.189372 -5.616076 -0.440726 -0.625888 5.674005 -15.126796 21.823793 -7.372931 -3.235747 5.677817 1.677455 0.122611 -5.616860 -9.663904 11.774838 
-0.588811 52.619251 -0.946076 -16.654070 -6.044907 0.127276 29.786789 7.549095 4.327882 -1.105725 3.085718 0.919080 -9.767879 -9.468933 1.265317 7.805385 -9.961005 61.013718 -11.828674 -14.796803 -0.779001 -75.379631 -10.774827 20.111181 -28.436605 -1.964285 0.633263 -26.607544 -12.786824 -27.110773 12.664142 9.199143 -0.477379 83.791840 14.872074 45.000000 16.164337 -5.000000 -38.248520 4.287887 -8.708934 -13.197494 26.031015 27.097660 19.019999 2.140289 -5.624551 -0.426738 -0.567057 5.671196 -15.127863 21.800596 -7.351927 -3.250758 5.697803 1.677627 0.133418 -5.620932 -9.656436 11.767866 
-0.592668 52.617474 -0.949280 -16.654112 -6.064438 0.127274 29.785250 7.563650 4.324107 -1.143735 3.085705 0.919052 -9.718085 -9.499368 1.260178 7.827644 -9.968649 61.006226 -11.868012 -14.816304 -0.780008 -75.347473 -10.725544 20.030136 -28.496384 -1.946245 0.598295 -26.633179 -12.868930 -27.114426 12.703205 9.199144 -0.477379 83.766762 14.793789 45.000000 16.309729 -5.000000 -38.114487 4.313085 -8.850766 -13.273525 26.030815 27.097504 19.030104 2.102739 -5.638831 -0.442834 -0.520131 5.754700 -15.054452 21.798405 -7.331341 -3.275561 5.687361 1.676357 0.152367 -5.627025 -9.617718 11.783918 
